<svg width="49" height="50" viewBox="0 0 49 50" fill="none" xmlns="http://www.w3.org/2000/svg">
<g id="noun-arrow-1017186 2" clip-path="url(#clip0_52_140)">
<path id="Vector" fill-rule="evenodd" clip-rule="evenodd" d="M19.2917 6.8988C19.7229 6.41693 19.6815 5.67588 19.1993 5.24473C18.7176 4.81357 17.9764 4.85489 17.5453 5.33676L0.393635 24.5129C-0.00848007 24.9622 0.000453949 25.636 0.393635 26.075L17.5453 45.2213C17.9764 45.7032 18.7176 45.7444 19.1993 45.3136C19.6812 44.8825 19.7228 44.1413 19.2917 43.6592L3.87998 26.4562L47.8248 26.456C48.4745 26.4557 49.0015 25.9287 49.0015 25.2789C49.0015 24.6294 48.4745 24.1022 47.8248 24.1022H3.90448L19.2917 6.8988Z" fill="#BA9650"/>
</g>
<defs>
<clipPath id="clip0_52_140">
<rect width="49" height="49" fill="white" transform="matrix(-1 0 0 1 49 0.730957)"/>
</clipPath>
</defs>
</svg>
