<svg width="49" height="50" viewBox="0 0 49 50" fill="none" xmlns="http://www.w3.org/2000/svg">
<g id="noun-arrow-1017186 1" clip-path="url(#clip0_52_138)">
<path id="Vector" fill-rule="evenodd" clip-rule="evenodd" d="M29.7083 6.8988C29.2771 6.41693 29.3185 5.67588 29.8007 5.24473C30.2824 4.81357 31.0236 4.85489 31.4547 5.33676L48.6064 24.5129C49.0085 24.9622 48.9995 25.636 48.6064 26.075L31.4547 45.2213C31.0236 45.7032 30.2824 45.7444 29.8007 45.3136C29.3188 44.8825 29.2772 44.1413 29.7083 43.6592L45.12 26.4562L1.17519 26.456C0.52553 26.4557 -0.00146484 25.9287 -0.00146484 25.2789C-0.00146484 24.6294 0.52553 24.1022 1.17519 24.1022H45.0955L29.7083 6.8988Z" fill="#BA9650"/>
</g>
<defs>
<clipPath id="clip0_52_138">
<rect width="49" height="49" fill="white" transform="translate(0 0.730957)"/>
</clipPath>
</defs>
</svg>
